<svg width="253" height="101" viewBox="0 0 253 101" fill="none" xmlns="http://www.w3.org/2000/svg">
<rect x="0.5" y="0.5" width="252" height="100" stroke="black"/>
<path d="M100.316 23V13.2H102.15V21.39H106.798V23H100.316ZM111.77 23.14C109.39 23.14 107.808 21.852 107.808 19.29V13.2H109.656V19.15C109.656 20.718 110.44 21.53 111.77 21.53C113.1 21.53 113.87 20.718 113.87 19.15V13.2H115.732V19.29C115.732 21.852 114.122 23.14 111.77 23.14ZM123.527 23L121.175 19.486L118.809 23H116.751L120.139 17.96L116.947 13.2H119.005L121.175 16.42L123.331 13.2H125.389L122.197 17.946L125.599 23H123.527ZM130.569 23.14C128.189 23.14 126.607 21.852 126.607 19.29V13.2H128.455V19.15C128.455 20.718 129.239 21.53 130.569 21.53C131.899 21.53 132.669 20.718 132.669 19.15V13.2H134.531V19.29C134.531 21.852 132.921 23.14 130.569 23.14ZM136.04 23V13.2H139.89C142.41 13.2 143.558 14.502 143.558 16.406C143.558 17.82 142.914 18.912 141.514 19.36L143.642 23H141.808L139.862 19.598H137.874V23H136.04ZM139.82 17.988C141.08 17.988 141.668 17.386 141.668 16.406C141.668 15.412 141.08 14.81 139.82 14.81H137.874V17.988H139.82ZM147.666 23V19.332L144.11 13.2H146.196L148.604 17.554L151.026 13.2H153.112L149.556 19.332V23H147.666Z" fill="black"/>
<path d="M33.5918 60V59.968C34.1038 59.808 34.8078 59.136 34.8078 55.968V39.52L34.0078 37.6H36.8238L44.7598 56.608L52.6958 37.6H55.0958V37.632C54.5838 37.76 54.2958 38.048 54.2958 39.424V58.176C54.2958 59.552 54.5838 59.84 55.0958 59.968V60H51.0638V59.968C51.5758 59.84 51.8638 59.552 51.8638 58.176V40.512L43.7678 60H43.3198L35.1918 40.512V56C35.1918 59.136 35.9278 59.808 36.4078 59.968V60H33.5918ZM67.121 39.424L72.561 58.176C72.945 59.552 73.329 59.84 73.841 59.968V60H69.841V59.968C70.321 59.84 70.353 59.488 70.353 59.264C70.353 59.008 70.289 58.656 70.161 58.208L67.473 48.896H61.361L59.313 56.032C58.897 57.568 58.833 58.24 58.833 58.688C58.833 59.008 58.865 59.488 59.121 59.712C59.217 59.84 59.345 59.936 59.441 59.968V60H56.625V59.968C57.105 59.808 58.033 59.2 58.897 56.032L63.921 38.72C63.985 38.56 63.985 38.4 63.985 38.304C63.985 37.984 63.793 37.728 63.409 37.632V37.6H67.473V37.632C66.993 37.76 66.929 38.112 66.929 38.368C66.929 38.624 66.993 38.976 67.121 39.424ZM61.489 48.512H67.377L64.433 38.304L61.489 48.512ZM88.0668 49.984H92.0988C91.5868 50.112 91.2668 50.464 91.2668 51.776V58.176C91.2668 59.552 91.5868 59.84 92.0988 59.968V60H84.0028C78.4348 60 74.5628 56.096 74.5628 48.8C74.5628 40.48 79.9388 36.992 85.3788 36.992C87.6828 36.992 89.8908 37.568 91.8108 38.688L90.5948 43.584H90.5628C90.5628 39.744 87.8428 37.472 84.8668 37.472C81.1548 37.472 77.1868 40.864 77.1868 48.8C77.1868 54.848 79.2668 59.584 84.0028 59.584H88.8668V51.776C88.8668 50.464 88.5468 50.112 88.0668 49.984ZM94.9415 60V59.968C95.4535 59.84 95.7415 59.552 95.7415 58.176V39.424C95.7415 38.048 95.4535 37.76 94.9415 37.632V37.6H98.9735V37.632C98.4615 37.76 98.1735 38.048 98.1735 39.424V58.176C98.1735 59.552 98.4615 59.84 98.9735 59.968V60H94.9415ZM112.245 58.304C115.061 58.304 117.717 56.832 118.965 53.632L118.997 53.664C117.781 58.144 114.197 60.256 110.517 60.256C104.821 60.256 101.813 54.528 101.813 48.8C101.813 40.608 106.645 37.312 111.765 37.312C114.069 37.312 116.309 37.952 118.325 39.104L117.109 44H117.077C117.077 40.064 114.421 37.696 111.509 37.696C108.053 37.696 104.501 41.12 104.501 48.512C104.501 48.608 104.501 48.704 104.501 48.8C104.597 53.664 107.029 58.304 112.245 58.304ZM134.169 41.568C134.169 47.712 145.145 49.216 145.145 55.04C145.145 58.816 141.145 60.224 137.209 60.224C134.681 60.224 132.249 59.68 130.745 58.816L131.961 53.92C131.961 57.984 135.033 59.84 137.849 59.84C140.281 59.84 142.521 58.464 142.521 56.032C142.521 50.56 131.545 48.832 131.545 42.592C131.545 38.72 134.969 37.344 138.425 37.344C140.633 37.344 142.841 37.888 144.249 38.688L143.033 43.584H143.001C143.001 39.616 140.409 37.792 138.041 37.792C136.025 37.792 134.169 39.104 134.169 41.568ZM153.416 60V59.968C153.928 59.84 154.216 59.552 154.216 58.176V38.016H153.352C149.896 38.016 148.072 39.072 148.072 43.328L146.728 37.6H164.136L162.792 43.328H162.76C162.76 39.072 160.936 38.016 157.512 38.016H156.648V58.176C156.648 59.552 156.936 59.84 157.448 59.968V60H153.416ZM174.656 37.408C180.16 37.408 183.904 41.728 183.904 48.8C183.904 55.872 180.16 60.192 174.656 60.192C169.12 60.192 165.376 56.096 165.376 48.8C165.376 41.504 169.12 37.408 174.656 37.408ZM174.656 59.776C178.944 59.776 181.28 54.848 181.28 48.8C181.28 42.752 178.944 37.824 174.656 37.824C170.336 37.824 168 42.752 168 48.8C168 54.848 170.336 59.776 174.656 59.776ZM202.273 37.6V37.632C201.76 37.728 201.057 38.528 201.057 41.6V60H200.673L188.161 39.584V56C188.161 59.136 188.897 59.808 189.377 59.968V60H186.561V59.968C187.073 59.808 187.777 59.136 187.777 55.968V38.912L186.977 37.6H189.793L200.673 55.04V41.632C200.673 38.496 199.937 37.728 199.457 37.632V37.6H202.273ZM218.444 54.272H218.476L219.82 60H205.004V59.968C205.516 59.84 205.804 59.552 205.804 58.176V39.392C205.804 38.08 205.516 37.76 205.004 37.632V37.6H218.988L217.676 43.328H217.644C217.644 39.072 215.82 38.016 212.396 38.016H208.236V48.512H209.452C212.172 48.512 213.74 46.4 213.836 45.888H213.868L212.46 52.128H212.428C212.46 52 212.46 51.872 212.46 51.744C212.46 51.136 212.236 48.896 209.452 48.896H208.236V59.584H213.196C216.62 59.584 218.444 58.528 218.444 54.272Z" fill="black"/>
<path d="M98.7323 89.14C96.3803 89.14 94.8263 87.866 94.8263 85.29H96.6743C96.6743 86.788 97.4583 87.53 98.7463 87.53C100.048 87.53 100.832 86.774 100.832 85.15V79.2H102.666V85.304C102.666 87.852 101.084 89.14 98.7323 89.14ZM104.178 89V79.2H110.744V80.81H106.012V83.302H110.324V84.744H106.012V87.39H110.884V89H104.178ZM114.168 89L111.606 79.2H113.482L115.204 86.41H115.288L117.332 79.2H119.236L121.28 86.41H121.364L123.086 79.2H124.976L122.4 89H120.482L118.284 81.524L116.086 89H114.168ZM126.053 89V79.2H132.619V80.81H127.887V83.302H132.199V84.744H127.887V87.39H132.759V89H126.053ZM133.901 89V79.2H135.735V87.39H140.383V89H133.901ZM141.529 89V79.2H145.379C147.899 79.2 149.047 80.502 149.047 82.406C149.047 83.82 148.403 84.912 147.003 85.36L149.131 89H147.297L145.351 85.598H143.363V89H141.529ZM145.309 83.988C146.569 83.988 147.157 83.386 147.157 82.406C147.157 81.412 146.569 80.81 145.309 80.81H143.363V83.988H145.309ZM153.156 89V85.332L149.6 79.2H151.686L154.094 83.554L156.516 79.2H158.602L155.046 85.332V89H153.156Z" fill="black"/>
</svg>
