<svg width="253" height="55" viewBox="0 0 253 55" fill="none" xmlns="http://www.w3.org/2000/svg">
<rect x="0.5" y="0.5" width="252" height="54" stroke="black"/>
<path d="M33.5918 37V36.968C34.1038 36.808 34.8078 36.136 34.8078 32.968V16.52L34.0078 14.6H36.8238L44.7598 33.608L52.6958 14.6H55.0958V14.632C54.5838 14.76 54.2958 15.048 54.2958 16.424V35.176C54.2958 36.552 54.5838 36.84 55.0958 36.968V37H51.0638V36.968C51.5758 36.84 51.8638 36.552 51.8638 35.176V17.512L43.7678 37H43.3198L35.1918 17.512V33C35.1918 36.136 35.9278 36.808 36.4078 36.968V37H33.5918ZM67.121 16.424L72.561 35.176C72.945 36.552 73.329 36.84 73.841 36.968V37H69.841V36.968C70.321 36.84 70.353 36.488 70.353 36.264C70.353 36.008 70.289 35.656 70.161 35.208L67.473 25.896H61.361L59.313 33.032C58.897 34.568 58.833 35.24 58.833 35.688C58.833 36.008 58.865 36.488 59.121 36.712C59.217 36.84 59.345 36.936 59.441 36.968V37H56.625V36.968C57.105 36.808 58.033 36.2 58.897 33.032L63.921 15.72C63.985 15.56 63.985 15.4 63.985 15.304C63.985 14.984 63.793 14.728 63.409 14.632V14.6H67.473V14.632C66.993 14.76 66.929 15.112 66.929 15.368C66.929 15.624 66.993 15.976 67.121 16.424ZM61.489 25.512H67.377L64.433 15.304L61.489 25.512ZM88.0668 26.984H92.0988C91.5868 27.112 91.2668 27.464 91.2668 28.776V35.176C91.2668 36.552 91.5868 36.84 92.0988 36.968V37H84.0028C78.4348 37 74.5628 33.096 74.5628 25.8C74.5628 17.48 79.9388 13.992 85.3788 13.992C87.6828 13.992 89.8908 14.568 91.8108 15.688L90.5948 20.584H90.5628C90.5628 16.744 87.8428 14.472 84.8668 14.472C81.1548 14.472 77.1868 17.864 77.1868 25.8C77.1868 31.848 79.2668 36.584 84.0028 36.584H88.8668V28.776C88.8668 27.464 88.5468 27.112 88.0668 26.984ZM94.9415 37V36.968C95.4535 36.84 95.7415 36.552 95.7415 35.176V16.424C95.7415 15.048 95.4535 14.76 94.9415 14.632V14.6H98.9735V14.632C98.4615 14.76 98.1735 15.048 98.1735 16.424V35.176C98.1735 36.552 98.4615 36.84 98.9735 36.968V37H94.9415ZM112.245 35.304C115.061 35.304 117.717 33.832 118.965 30.632L118.997 30.664C117.781 35.144 114.197 37.256 110.517 37.256C104.821 37.256 101.813 31.528 101.813 25.8C101.813 17.608 106.645 14.312 111.765 14.312C114.069 14.312 116.309 14.952 118.325 16.104L117.109 21H117.077C117.077 17.064 114.421 14.696 111.509 14.696C108.053 14.696 104.501 18.12 104.501 25.512C104.501 25.608 104.501 25.704 104.501 25.8C104.597 30.664 107.029 35.304 112.245 35.304ZM134.169 18.568C134.169 24.712 145.145 26.216 145.145 32.04C145.145 35.816 141.145 37.224 137.209 37.224C134.681 37.224 132.249 36.68 130.745 35.816L131.961 30.92C131.961 34.984 135.033 36.84 137.849 36.84C140.281 36.84 142.521 35.464 142.521 33.032C142.521 27.56 131.545 25.832 131.545 19.592C131.545 15.72 134.969 14.344 138.425 14.344C140.633 14.344 142.841 14.888 144.249 15.688L143.033 20.584H143.001C143.001 16.616 140.409 14.792 138.041 14.792C136.025 14.792 134.169 16.104 134.169 18.568ZM153.416 37V36.968C153.928 36.84 154.216 36.552 154.216 35.176V15.016H153.352C149.896 15.016 148.072 16.072 148.072 20.328L146.728 14.6H164.136L162.792 20.328H162.76C162.76 16.072 160.936 15.016 157.512 15.016H156.648V35.176C156.648 36.552 156.936 36.84 157.448 36.968V37H153.416ZM174.656 14.408C180.16 14.408 183.904 18.728 183.904 25.8C183.904 32.872 180.16 37.192 174.656 37.192C169.12 37.192 165.376 33.096 165.376 25.8C165.376 18.504 169.12 14.408 174.656 14.408ZM174.656 36.776C178.944 36.776 181.28 31.848 181.28 25.8C181.28 19.752 178.944 14.824 174.656 14.824C170.336 14.824 168 19.752 168 25.8C168 31.848 170.336 36.776 174.656 36.776ZM202.273 14.6V14.632C201.76 14.728 201.057 15.528 201.057 18.6V37H200.673L188.161 16.584V33C188.161 36.136 188.897 36.808 189.377 36.968V37H186.561V36.968C187.073 36.808 187.777 36.136 187.777 32.968V15.912L186.977 14.6H189.793L200.673 32.04V18.632C200.673 15.496 199.937 14.728 199.457 14.632V14.6H202.273ZM218.444 31.272H218.476L219.82 37H205.004V36.968C205.516 36.84 205.804 36.552 205.804 35.176V16.392C205.804 15.08 205.516 14.76 205.004 14.632V14.6H218.988L217.676 20.328H217.644C217.644 16.072 215.82 15.016 212.396 15.016H208.236V25.512H209.452C212.172 25.512 213.74 23.4 213.836 22.888H213.868L212.46 29.128H212.428C212.46 29 212.46 28.872 212.46 28.744C212.46 28.136 212.236 25.896 209.452 25.896H208.236V36.584H213.196C216.62 36.584 218.444 35.528 218.444 31.272Z" fill="black"/>
</svg>
