<svg width="16" height="16" viewBox="0 0 16 16" fill="none" xmlns="http://www.w3.org/2000/svg">
<path d="M8.57143 8.31917V12.7997C8.57143 12.9694 8.51122 13.1322 8.40406 13.2523C8.2969 13.3723 8.15155 13.4397 8 13.4397C7.84845 13.4397 7.7031 13.3723 7.59594 13.2523C7.48878 13.1322 7.42857 12.9694 7.42857 12.7997V8.31917C7.42857 8.14942 7.48878 7.98661 7.59594 7.86658C7.7031 7.74654 7.84845 7.67911 8 7.67911C8.15155 7.67911 8.2969 7.74654 8.40406 7.86658C8.51122 7.98661 8.57143 8.14942 8.57143 8.31917ZM11.2028 8.25517L10.8028 12.7356C10.7949 12.8195 10.8019 12.9043 10.8234 12.9852C10.8448 13.0661 10.8803 13.1414 10.9279 13.2068C10.9754 13.2722 11.034 13.3265 11.1003 13.3665C11.1666 13.4064 11.2393 13.4313 11.3143 13.4397C11.3335 13.4409 11.3529 13.4409 11.3721 13.4397C11.5137 13.4395 11.6501 13.3805 11.755 13.2741C11.8599 13.1677 11.9258 13.0214 11.94 12.8637L12.34 8.38318C12.3551 8.21427 12.3098 8.04554 12.2139 7.9141C12.1179 7.78266 11.9793 7.69928 11.8286 7.68231C11.6778 7.66533 11.5271 7.71615 11.4098 7.82358C11.2924 7.93101 11.218 8.08626 11.2028 8.25517ZM4.79716 8.25517C4.782 8.08626 4.70757 7.93101 4.59022 7.82358C4.47288 7.71615 4.32224 7.66533 4.17145 7.68231C4.02065 7.69928 3.88206 7.78266 3.78615 7.9141C3.69023 8.04554 3.64487 8.21427 3.66002 8.38318L4.06002 12.8637C4.07423 13.0221 4.14066 13.1689 4.24632 13.2754C4.35198 13.3819 4.48929 13.4405 4.63144 13.4397C4.65072 13.4409 4.67003 13.4409 4.6893 13.4397C4.76397 13.4313 4.83642 13.4065 4.90254 13.3668C4.96865 13.327 5.02712 13.273 5.07461 13.2079C5.1221 13.1429 5.15768 13.0679 5.17932 12.9874C5.20096 12.907 5.20823 12.8225 5.20073 12.7389L4.79716 8.25517ZM15.995 5.84371L14.9185 14.8895C14.881 15.1965 14.7457 15.4779 14.5375 15.682C14.3293 15.8861 14.0623 15.999 13.7857 16H2.21431C1.93768 15.999 1.67068 15.8861 1.46251 15.682C1.25434 15.4779 1.11901 15.1965 1.08146 14.8895L0.00503829 5.84371C-0.00575235 5.75329 0.000835804 5.66133 0.0243611 5.574C0.0478865 5.48667 0.0878055 5.40598 0.141443 5.33734C0.19508 5.26869 0.261197 5.21369 0.335362 5.176C0.409526 5.13832 0.490025 5.11882 0.571464 5.11883H3.74074L7.57143 0.216703C7.62505 0.148595 7.691 0.0940485 7.76489 0.0566858C7.83879 0.0193231 7.91893 0 8 0C8.08107 0 8.16121 0.0193231 8.23511 0.0566858C8.309 0.0940485 8.37495 0.148595 8.42857 0.216703L12.2593 5.11883H15.4285C15.51 5.11882 15.5905 5.13832 15.6646 5.176C15.7388 5.21369 15.8049 5.26869 15.8586 5.33734C15.9122 5.40598 15.9521 5.48667 15.9756 5.574C15.9992 5.66133 16.0058 5.75329 15.995 5.84371ZM5.2593 5.11883H10.7407L8 1.61045L5.2593 5.11883ZM14.7757 6.39897H1.22432L2.21431 14.7199H13.7857L14.7757 6.39897Z" fill="black"/>
</svg>
